<svg xmlns="http://www.w3.org/2000/svg" width="91" height="80" viewBox="0 0 91 80">
    <path fill="#16BAFB" fill-rule="evenodd" d="M44.207 80l-.387-19.192c-4.055-.007-7.585-.5-10.235-1.547-1.56-.615-2.953-1.476-3.93-2.683-1.02-1.259-1.497-2.79-1.325-4.473a2.08 2.08 0 0 1 2.276-1.861 2.09 2.09 0 0 1 1.848 2.295c-.06.558.077.985.408 1.396.375.462 1.073.978 2.233 1.436 1.984.784 4.92 1.244 8.64 1.256l-.139-6.918c-6.541.328-11.616-.474-14.977-2.34-3.898-2.161-5.448-5.78-4.192-9.885.04-.137.096-.268.15-.358.192-1.104.15-1.32.139-1.495-.145-2.685 2.037-5.374 4.292-6.805 2.57-1.626 7.088-1.726 9.91-.596 1.109.446 1.38 1.09 1.436 2.3.141 2.923-2.418 5.754-4.907 7.263-1.81 1.1-4.181 1.684-6.342 1.427-.336-.04-.546-.005-.944.764-.24 1.223.458 2.619 2.456 3.725 2.402 1.334 6.615 2.152 12.897 1.818l-.718-35.721a5.335 5.335 0 0 1-2.437-4.485C40.36 2.388 42.727 0 45.635 0c2.91 0 5.277 2.388 5.277 5.32 0 1.881-.974 3.54-2.438 4.484l-.714 35.52c6.856-.055 14.885 1.457 16.07 6.823.596 2.363-.344 5.183-3.294 6.555-1.038.833-3.85-1.903-2.81-2.721 1.028-.478 2.278-1.18 2.073-2.865-.191-.869-1.348-2.01-4.34-2.801-2.186-.58-4.913-.851-7.784-.815l-.144 7.136c2.584.09 5.119.302 7.106.974 2.646.892 4.69 2.766 4.806 6.077.101 3.024-1.85 5.163-4.216 6.356-2.216 1.12-5.065 1.608-7.994 1.514L47.064 80h-2.857zm-3.422-9.025c-2.229-.807-5.117-2.436-7.014-4.064-.897-.77-1.031-2.16-.299-3.1.733-.943 2.057-1.084 2.951-.315 1.472 1.262 3.19 2.22 5.012 2.883 1.095.396.445 4.996-.65 4.596zm12.282-5.127c1.485-.797 1.961-1.708 1.932-2.632-.024-.756-.221-1.174-.452-1.458-.262-.324-.721-.66-1.532-.954-1.409-.503-3.34-.706-5.882-.804L47 66.989c2.468.09 4.612-.36 6.067-1.14zm7.157-20.286c-.504-1.018.047-1.843 1.046-2.358 1.342-.693 2.056-1.484 2.393-2.231.202-.447.31-.97.278-1.582l-.005.002c-.103-.633-.268-.85-.928-.77-2.112.254-4.43-.325-6.203-1.413-2.434-1.494-4.935-4.295-4.8-7.19.057-1.196.322-1.834 1.407-2.275 2.76-1.12 7.18-1.02 9.692.59 2.205 1.415 4.337 4.078 4.197 6.735-.019.346-.172.851.138 1.482l.002.012c.045.072.1.2.141.337.6 1.985.583 3.99-.239 5.806-.817 1.805-2.317 3.192-4.244 4.189-.768.397-2.196-.403-2.875-1.334zm13.622-19.565C68.467 25.867 61.6 20.501 53 23.982V9.002c12.668-12.887 22.683 9.668 38 7.396-1.023 2.106-2.648 4.17-9.833 2.463l3.214 3.224c-3.087 1.106-6.172.949-9.264-.946-.992 1.74.886 3.322.947 4.55-.709.238-1.45.328-2.218.308zm-58.912-.305c.063-1.229 1.939-2.811.95-4.552-3.092 1.896-6.18 2.052-9.264.947l3.212-3.224C2.647 20.57 1.02 18.505 0 16.399 15.316 18.67 25.334-3.885 38 9.003v14.981c-9.828-3.98-17.396 3.598-23.066 1.708z"/>
</svg>
