<?xml version="1.0" encoding="UTF-8"?>
<svg width="36px" height="31px" viewBox="0 0 36 31" version="1.1" xmlns="http://www.w3.org/2000/svg" xmlns:xlink="http://www.w3.org/1999/xlink">
    <!-- Generator: Sketch 58 (84663) - https://sketch.com -->
    <title>icon</title>
    <desc>Created with Sketch.</desc>
    <defs>
        <polygon id="path-1" points="1.38600139e-05 0.00699129583 24.2927374 0.00699129583 24.2927374 23.3513514 1.38600139e-05 23.3513514"></polygon>
        <polygon id="path-3" points="0.0315246015 0.0473357213 24.3242481 0.0473357213 24.3242481 23.321719 0.0315246015 23.321719"></polygon>
    </defs>
    <g id="Desktop" stroke="none" stroke-width="1" fill="none" fill-rule="evenodd">
        <g id="About-" transform="translate(-268.000000, -2108.000000)">
            <g id="process" transform="translate(0.000000, 1411.000000)">
                <g id="1" transform="translate(250.000000, 674.000000)">
                    <g id="icon" transform="translate(18.000000, 23.000000)">
                        <g id="Group-3" transform="translate(0.000000, 7.433171)">
                            <mask id="mask-2" fill="white">
                                <use xlink:href="#path-1"></use>
                            </mask>
                            <g id="Clip-2"></g>
                            <path d="M5.57229383,23.3513584 C5.31914068,23.3513584 5.06363132,23.2952023 4.82302148,23.1799976 C4.17007623,22.8674704 3.77548164,22.1918333 3.81761608,21.4585585 L4.0439501,17.5232562 L2.30950797,17.5232562 C1.0360499,17.5232562 1.38600139e-05,16.4685652 1.38600139e-05,15.1721772 L1.38600139e-05,2.35807025 C1.38600139e-05,1.06161169 1.0360499,0.00699129583 2.30950797,0.00699129583 L21.9832432,0.00699129583 C23.2567706,0.00699129583 24.2927374,1.06168224 24.2927374,2.35807025 L24.2927374,15.1721772 C24.2927374,16.4684947 23.2567013,17.5232562 21.9832432,17.5232562 L19.8073597,17.5232562 C19.2785308,17.5232562 18.8498406,17.0868469 18.8498406,16.548496 C18.8498406,16.0100745 19.2785308,15.5737358 19.8073597,15.5737358 L21.9833125,15.5737358 C22.2008455,15.5737358 22.3778378,15.393627 22.3778378,15.1721067 L22.3778378,2.35807025 C22.3778378,2.13662043 22.2009148,1.95644112 21.9833125,1.95644112 L2.30950797,1.95644112 C2.09204435,1.95644112 1.91498267,2.13654988 1.91498267,2.35807025 L1.91498267,15.1721772 C1.91498267,15.3935565 2.09190575,15.5738064 2.30950797,15.5738064 L5.05919612,15.5738064 C5.32281358,15.5738064 5.57478863,15.6844254 5.75580042,15.8797725 C5.9366736,16.0750491 6.03050589,16.3376283 6.01512128,16.6055692 L5.75275121,21.166843 L11.369799,15.8356096 C11.5471379,15.6673529 11.7804019,15.5738064 12.0227443,15.5738064 L15.3946085,15.5738064 C15.9234373,15.5738064 16.3521275,16.010145 16.3521275,16.5485665 C16.3521275,17.0869175 15.9234373,17.5233267 15.3946085,17.5233267 L12.399806,17.5233267 L6.76647263,22.8699396 C6.43334719,23.1862058 6.00618157,23.3513584 5.57229383,23.3513584" id="Fill-1" fill="#16BAFB" mask="url(#mask-2)"></path>
                        </g>
                        <path d="M33.6751487,1.59533361 L14.0007349,1.59533361 C13.2540728,1.59533361 12.6486486,2.21186357 12.6486486,2.97230933 L12.6486486,7.69548639 L22.4858902,7.69548639 C23.2325523,7.69548639 23.8379071,8.31201635 23.8379071,9.07253269 L23.8379071,17.1695791 L23.9615423,17.1695791 L29.8708036,22.7806016 C30.3971539,23.2803897 31.2530363,22.8705931 31.2109698,22.138874 L30.9252368,17.1694379 L33.6750101,17.1694379 C34.4216722,17.1694379 35.027027,16.5529079 35.027027,15.7924622 L35.027027,2.97230933 C35.027027,2.21179299 34.4218108,1.59533361 33.6751487,1.59533361" id="Fill-4" fill="#FFFFFF"></path>
                        <g id="Group-8" transform="translate(11.675676, 0.622361)">
                            <mask id="mask-4" fill="white">
                                <use xlink:href="#path-3"></use>
                            </mask>
                            <g id="Clip-7"></g>
                            <path d="M13.1354747,15.9994527 L18.57158,21.1432912 L18.30921,16.5958265 C18.2938947,16.328763 18.3876577,16.0669747 18.5685308,15.872216 C18.7494733,15.6775276 19.0014484,15.5671713 19.2651351,15.5671713 L22.0148233,15.5671713 C22.2323562,15.5671713 22.4093486,15.3876051 22.4093486,15.1667519 L22.4093486,2.39131202 C22.4093486,2.17059954 22.2324948,1.99096294 22.0148233,1.99096294 L2.34101871,1.99096294 C2.12348579,1.99096294 1.94649342,2.17045887 1.94649342,2.39131202 L1.94649342,6.12619186 L10.8259113,6.12619186 C12.0993694,6.12619186 13.1354054,7.17770602 13.1354054,8.47018925 L13.1354054,15.9994527 L13.1354747,15.9994527 Z M18.7489882,23.321719 C18.3082398,23.321719 17.8852322,23.1512261 17.55772,22.8413283 L11.8702633,17.4596858 C11.4924394,17.3295654 11.2203673,16.966494 11.2203673,16.5389955 L11.2203673,8.47018925 C11.2203673,8.24947678 11.0435135,8.06976985 10.825842,8.06976985 L0.989043659,8.06976985 C0.46021483,8.06976985 0.0315246015,7.63467509 0.0315246015,7.09794569 L0.0315246015,2.39131202 C0.0315246015,1.09875845 1.06756064,0.0473146206 2.34101871,0.0473146206 L22.014754,0.0473146206 C23.2882121,0.0473146206 24.3242481,1.09882879 24.3242481,2.39131202 L24.3242481,15.1668223 C24.3242481,16.4593055 23.2882121,17.5108197 22.014754,17.5108197 L20.2802426,17.5108197 L20.5065766,21.434339 C20.5351975,21.9304146 20.3683229,22.4001847 20.0366528,22.7571368 C19.7033195,23.115988 19.2339501,23.321719 18.7489882,23.321719 L18.7489882,23.321719 Z" id="Fill-6" fill="#16BAFB" mask="url(#mask-4)"></path>
                        </g>
                        <path d="M18.4864815,14.2439823 L6.81081584,14.2439823 C6.27344918,14.2439823 5.83783784,13.8083732 5.83783784,13.2710093 C5.83783784,12.7336454 6.27344918,12.2980363 6.81081584,12.2980363 L18.4864815,12.2980363 C19.0238481,12.2980363 19.4594595,12.7336454 19.4594595,13.2710093 C19.4594595,13.8083732 19.0238481,14.2439823 18.4864815,14.2439823" id="Fill-9" fill="#16BAFB"></path>
                        <path d="M16.525564,20.0818201 L7.7987603,20.0818201 C7.25312503,20.0818201 6.81081081,19.6461564 6.81081081,19.1088823 C6.81081081,18.5715379 7.25312503,18.1358742 7.7987603,18.1358742 L16.525564,18.1358742 C17.0711993,18.1358742 17.5135135,18.5715379 17.5135135,19.1088823 C17.5135135,19.6461564 17.0711993,20.0818201 16.525564,20.0818201" id="Fill-11" fill="#16BAFB"></path>
                    </g>
                </g>
            </g>
        </g>
    </g>
</svg>