<?xml version="1.0" encoding="UTF-8"?>
<svg width="22px" height="36px" viewBox="0 0 22 36" version="1.1" xmlns="http://www.w3.org/2000/svg" xmlns:xlink="http://www.w3.org/1999/xlink">
    <!-- Generator: Sketch 58 (84663) - https://sketch.com -->
    <title>icon</title>
    <desc>Created with Sketch.</desc>
    <g id="Desktop" stroke="none" stroke-width="1" fill="none" fill-rule="evenodd">
        <g id="About-" transform="translate(-1135.000000, -2104.000000)">
            <g id="process" transform="translate(0.000000, 1411.000000)">
                <g id="1" transform="translate(1110.000000, 674.000000)">
                    <g id="icon" transform="translate(25.000000, 19.000000)">
                        <path d="M18.4534877,24.8583439 C17.9397333,24.8583439 17.4928561,24.4780632 17.4230316,23.9548351 C17.3470316,23.3849404 17.7474526,22.8615018 18.3173474,22.7856421 C18.8776281,22.7108351 19.3001544,22.227607 19.3001544,21.6611509 L19.3001544,15.7412912 C19.3001544,15.1151158 18.7908211,14.6057123 18.1647158,14.6057123 C17.9628912,14.6057123 17.7720842,14.6568 17.5975579,14.7579228 C17.2755228,14.9440281 16.8785404,14.9443088 16.5563649,14.7584842 C16.2341193,14.5725895 16.035593,14.2288 16.035593,13.8568702 L16.035593,13.7970807 C16.035593,13.1709754 15.5261895,12.6615719 14.9000842,12.6615719 C14.6977684,12.6615719 14.5074526,12.7124491 14.3341895,12.8130105 C13.8368561,13.1014316 13.1999439,12.9323789 12.9116632,12.4347649 C12.6232421,11.9375719 12.7925754,11.3007298 13.2898386,11.0122386 C13.7775579,10.7294316 14.3344702,10.5799579 14.9001544,10.5799579 C16.2276632,10.5799579 17.3701193,11.3883789 17.8609965,12.5384842 C17.9617684,12.5290105 18.0631018,12.5240281 18.1647158,12.5240281 C19.9386807,12.5240281 21.3818386,13.9673965 21.3818386,15.7413614 L21.3818386,21.6612211 C21.3818386,23.2666947 20.1827509,24.6372211 18.5923649,24.8490807 C18.5455579,24.8552561 18.4992421,24.8583439 18.4534877,24.8583439" id="Fill-1" fill="#16BAFB"></path>
                        <path d="M17.1742246,34.8891158 L6.3284,34.8891158 C5.28678596,34.8891158 4.44215439,34.0446246 4.44215439,33.0028702 L4.44215439,27.9392211 L19.0604702,27.9392211 L19.0604702,33.0029404 C19.0604702,34.0446246 18.2160491,34.8891158 17.1742246,34.8891158" id="Fill-3" fill="#FFFFFF"></path>
                        <path d="M5.48302456,28.9800561 L5.48302456,33.0029333 C5.48302456,33.4690386 5.86232281,33.8481965 6.32842807,33.8481965 L17.1743228,33.8481965 C17.6404281,33.8481965 18.0196561,33.4688982 18.0196561,33.0029333 L18.0196561,28.9800561 L5.48302456,28.9800561 Z M17.1742526,35.9299509 L6.32842807,35.9299509 C4.71446316,35.9299509 3.40127018,34.6168982 3.40127018,33.0029333 L3.40127018,27.939214 C3.40127018,27.3645474 3.86723509,26.8983719 4.44211228,26.8983719 L19.0604281,26.8983719 C19.6353053,26.8983719 20.1012702,27.3645474 20.1012702,27.939214 L20.1012702,33.0029333 C20.1012702,34.6168982 18.7882877,35.9299509 17.1742526,35.9299509 L17.1742526,35.9299509 Z" id="Fill-5" fill="#16BAFB"></path>
                        <path d="M5.48750877,25.2244351 C5.47635088,25.2244351 5.46526316,25.2244351 5.45410526,25.2239439 C4.11782456,25.1817684 2.94708772,24.2989614 2.54091228,23.0273123 C2.53978947,23.0238737 2.53873684,23.0204351 2.53761404,23.0168561 L0.148210526,15.2546807 C-0.377964912,13.5953123 0.541473684,11.8152421 2.20007018,11.284786 C3.05761404,11.0109614 3.94729825,11.1232421 4.6805614,11.5241544 L3.97178947,3.55664561 C3.77592982,1.81103158 5.03178947,0.227312281 6.77838596,0.0224701754 C7.62764912,-0.0776701754 8.46385965,0.159733333 9.13438596,0.689698246 C9.80491228,1.21938246 10.2289825,1.97861053 10.3285614,2.82731228 L10.5706667,4.89201404 L11.2519298,2.8184 C11.8220351,1.13832982 13.6421053,0.240364912 15.3127719,0.807312281 C16.9832982,1.37425965 17.8811228,3.19454035 17.3142456,4.86492632 L16.1840702,8.18008421 C15.9984561,8.72422456 15.4070877,9.01510175 14.8630175,8.82934737 C14.3188772,8.64387368 14.0281404,8.05243509 14.213614,7.50836491 L15.3433684,4.19454035 C15.5409123,3.61236491 15.2272281,2.97664561 14.6437895,2.77854035 C14.0603509,2.58057544 13.4244912,2.89418947 13.2265263,3.47769825 L11.0754386,10.0254175 C10.9229474,10.4895579 10.468,10.7852772 9.98231579,10.7361544 C9.49635088,10.6872421 9.10961404,10.3070316 9.05270175,9.8218386 L8.26091228,3.0698386 C8.22617544,2.77327719 8.07803509,2.50815439 7.84385965,2.32303158 C7.60968421,2.13790877 7.31768421,2.05531228 7.02091228,2.08997895 C6.40898246,2.16169825 5.96940351,2.71804912 6.04126316,3.33004912 C6.04238596,3.33973333 6.04336842,3.34941754 6.04421053,3.35910175 L7.23108772,16.7024702 C7.27810526,17.2304702 6.92063158,17.7096281 6.40091228,17.8148211 C5.88140351,17.9204351 5.36554386,17.6177684 5.20336842,17.1131368 L4.19340351,13.9702596 C4.01157895,13.4005754 3.40189474,13.0862596 2.83368421,13.2678035 C2.26631579,13.449207 1.95185965,14.0593123 2.13326316,14.6275228 C2.13431579,14.6308211 2.1354386,14.6342596 2.13649123,14.6376982 L4.52540351,22.3983298 C4.66519298,22.8297684 5.0642807,23.1289263 5.51985965,23.1431719 C6.09438596,23.1612772 6.54554386,23.6417684 6.5274386,24.2164351 C6.50940351,24.7798737 6.04701754,25.2244351 5.48750877,25.2244351" id="Fill-7" fill="#16BAFB"></path>
                    </g>
                </g>
            </g>
        </g>
    </g>
</svg>