<svg xmlns="http://www.w3.org/2000/svg" xmlns:xlink="http://www.w3.org/1999/xlink" width="36" height="26" viewBox="0 0 36 26">
    <defs>
        <path id="a" d="M0 .017h36V25.2H0z"/>
    </defs>
    <g fill="none" fill-rule="evenodd">
        <g transform="translate(0 .416)">
            <mask id="b" fill="#fff">
                <use xlink:href="#a"/>
            </mask>
            <path fill="#16BAFB" d="M18 1.808c-8.778 0-14.52 7.909-16.071 10.333a.87.87 0 0 0 0 .935C3.479 15.501 9.222 23.41 18 23.41c8.778 0 14.52-7.91 16.071-10.333a.87.87 0 0 0 0-.936C32.521 9.717 26.778 1.808 18 1.808M18 25.2c-4.141 0-8.094-1.525-11.747-4.533C3.32 18.251 1.337 15.478.417 14.04a2.664 2.664 0 0 1 0-2.863C1.337 9.74 3.32 6.966 6.253 4.55 9.906 1.543 13.86.017 18 .017s8.094 1.525 11.747 4.533c2.934 2.416 4.916 5.19 5.836 6.627.556.87.556 1.994 0 2.863-.92 1.438-2.902 4.211-5.836 6.627C26.094 23.675 22.14 25.2 18 25.2" mask="url(#b)"/>
        </g>
        <path fill="#FFF" d="M18 1.856c5.965 0 10.8 4.836 10.8 10.8 0 5.965-4.835 10.8-10.8 10.8-5.965 0-10.8-4.835-10.8-10.8 0-5.964 4.835-10.8 10.8-10.8"/>
        <path fill="#16BAFB" d="M18 2.909c-5.375 0-9.748 4.372-9.748 9.747s4.373 9.748 9.748 9.748c5.375 0 9.748-4.373 9.748-9.748 0-5.375-4.373-9.747-9.748-9.747m0 21.267c-6.352 0-11.52-5.168-11.52-11.52 0-6.352 5.168-11.52 11.52-11.52 6.352 0 11.52 5.168 11.52 11.52 0 6.352-5.168 11.52-11.52 11.52"/>
        <path fill="#16BAFB" d="M18.65 19.136c-3.534 0-6.41-2.907-6.41-6.48 0-3.573 2.876-6.48 6.41-6.48 2.444 0 4.642 1.375 5.736 3.587a.902.902 0 0 1-.397 1.204.883.883 0 0 1-1.19-.401A4.608 4.608 0 0 0 18.65 7.97c-2.556 0-4.635 2.102-4.635 4.685 0 2.584 2.08 4.686 4.635 4.686a4.65 4.65 0 0 0 3.99-2.3.882.882 0 0 1 1.216-.315c.421.253.56.803.31 1.23-1.15 1.96-3.264 3.18-5.516 3.18"/>
    </g>
</svg>
