<?xml version="1.0" encoding="UTF-8"?>
<svg width="36px" height="35px" viewBox="0 0 36 35" version="1.1" xmlns="http://www.w3.org/2000/svg" xmlns:xlink="http://www.w3.org/1999/xlink">
    <!-- Generator: Sketch 58 (84663) - https://sketch.com -->
    <title>icon</title>
    <desc>Created with Sketch.</desc>
    <defs>
        <polygon id="path-1" points="0.0454877193 0.0175157895 6.38603509 0.0175157895 6.38603509 28.9198316 0.0454877193 28.9198316"></polygon>
        <polygon id="path-3" points="0.0536280702 0.0696280702 2.16724211 0.0696280702 2.16724211 4.07017544 0.0536280702 4.07017544"></polygon>
        <polygon id="path-5" points="0 34.3157895 35.9298947 34.3157895 35.9298947 0.0477894737 0 0.0477894737"></polygon>
    </defs>
    <g id="Desktop" stroke="none" stroke-width="1" fill="none" fill-rule="evenodd">
        <g id="About-" transform="translate(-548.000000, -2105.000000)">
            <g id="process" transform="translate(0.000000, 1411.000000)">
                <g id="1" transform="translate(530.000000, 674.000000)">
                    <g id="icon" transform="translate(18.000000, 20.000000)">
                        <polygon id="Fill-1" fill="#CEE8FA" points="31.8540351 5.20926316 33.6654035 5.20926316 33.6654035 2.79382456 31.8540351 2.79382456"></polygon>
                        <g id="Group-17" transform="translate(0.000000, 0.022386)">
                            <path d="M33.6652982,6.24370526 L31.8537193,6.24370526 C31.2701404,6.24370526 30.7969474,5.77058246 30.7969474,5.18693333 L30.7969474,2.77149474 C30.7969474,2.18784561 31.2700702,1.71472281 31.8537193,1.71472281 L33.6652982,1.71472281 C34.2487368,1.71472281 34.7220702,2.18784561 34.7220702,2.77149474 L34.7220702,5.18693333 C34.7220702,5.77058246 34.2488772,6.24370526 33.6652982,6.24370526" id="Fill-2" fill="#16BAFB"></path>
                            <g id="Group-6" transform="translate(29.543860, 3.508772)">
                                <mask id="mask-2" fill="white">
                                    <use xlink:href="#path-1"></use>
                                </mask>
                                <g id="Clip-5"></g>
                                <path d="M3.21573333,28.9198316 C1.46766316,28.9198316 0.0454877193,27.4976561 0.0454877193,25.749586 L0.0454877193,1.07421754 C0.0454877193,0.490568421 0.518610526,0.0175157895 1.10225965,0.0175157895 L5.32927719,0.0175157895 C5.91278596,0.0175157895 6.38604912,0.490568421 6.38604912,1.07421754 L6.38604912,6.50902456 C6.38604912,7.09267368 5.91285614,7.56586667 5.32927719,7.56586667 C4.74569825,7.56586667 4.27250526,7.09267368 4.27250526,6.50902456 L4.27250526,2.13098947 L2.15889123,2.13098947 L2.15889123,25.749586 C2.15889123,26.3322526 2.63299649,26.8064281 3.21573333,26.8064281 C3.7984,26.8064281 4.27250526,26.332393 4.27250526,25.749586 L4.27250526,11.0228491 C4.27250526,10.4392 4.74569825,9.96607719 5.32927719,9.96607719 C5.91285614,9.96607719 6.38597895,10.4392702 6.38597895,11.0228491 L6.38597895,25.7495158 C6.38597895,27.4976561 4.96380351,28.9198316 3.21573333,28.9198316" id="Fill-4" fill="#16BAFB" mask="url(#mask-2)"></path>
                            </g>
                            <g id="Group-9" transform="translate(31.649123, 30.245614)">
                                <mask id="mask-4" fill="white">
                                    <use xlink:href="#path-3"></use>
                                </mask>
                                <g id="Clip-8"></g>
                                <path d="M1.11047018,4.07018947 C0.526961404,4.07018947 0.0536280702,3.59706667 0.0536280702,3.01334737 L0.0536280702,1.1264 C0.0536280702,0.542680702 0.526891228,0.0696280702 1.11047018,0.0696280702 C1.69397895,0.0696280702 2.16724211,0.542680702 2.16724211,1.1264 L2.16724211,3.01334737 C2.16717193,3.59706667 1.69390877,4.07018947 1.11047018,4.07018947" id="Fill-7" fill="#16BAFB" mask="url(#mask-4)"></path>
                            </g>
                            <mask id="mask-6" fill="white">
                                <use xlink:href="#path-5"></use>
                            </mask>
                            <g id="Clip-11"></g>
                            <polygon id="Fill-10" fill="#FFFFFF" mask="url(#mask-6)" points="30.6463158 10.0183158 34.8729825 10.0183158 34.8729825 4.58322807 30.6463158 4.58322807"></polygon>
                            <path d="M31.702807,8.96105263 L33.8163509,8.96105263 L33.8163509,5.63978947 L31.702807,5.63978947 L31.702807,8.96105263 Z M34.8730526,11.0745965 L30.6460351,11.0745965 C30.0625263,11.0745965 29.5892632,10.6014737 29.5892632,10.0178246 L29.5892632,4.58301754 C29.5892632,3.99936842 30.0624561,3.52624561 30.6460351,3.52624561 L34.8730526,3.52624561 C35.4565614,3.52624561 35.9298246,3.99936842 35.9298246,4.58301754 L35.9298246,10.0178246 C35.9298246,10.6014737 35.4566316,11.0745965 34.8730526,11.0745965 L34.8730526,11.0745965 Z" id="Fill-12" fill="#16BAFB" mask="url(#mask-6)"></path>
                            <path d="M9.61389474,1.29493333 L9.61389474,7.7850386 C9.61389474,8.72545965 8.85157895,9.48791579 7.91101754,9.48791579 L1.26526316,9.48791579 C1.15768421,9.48791579 1.07515789,9.3930386 1.0885614,9.28630175 C1.20014035,8.4016 1.60266667,7.57247719 2.23978947,6.93626667 L6.8882807,2.28777544 C7.5682807,1.60679298 8.46708772,1.19402105 9.41929825,1.1176 C9.5237193,1.10924912 9.61389474,1.19009123 9.61389474,1.29493333" id="Fill-13" fill="#FFFFFF" mask="url(#mask-6)"></path>
                            <path d="M2.44281404,8.43110175 L7.91102456,8.43110175 C8.26723509,8.43110175 8.55712982,8.14120702 8.55712982,7.78499649 L8.55712982,2.40745263 C8.21593684,2.55552281 7.90267368,2.76738246 7.63607719,3.03432982 L2.98716491,7.68345263 C2.76723509,7.90310175 2.58379649,8.15629474 2.44281404,8.43110175 M7.91102456,10.5446456 L1.26527018,10.5446456 C0.911235088,10.5446456 0.573831579,10.3923649 0.33965614,10.1268211 C0.104919298,9.86085614 -0.00420350877,9.5064 0.040077193,9.1544 C0.181059649,8.03657544 0.697059649,6.98338246 1.4932,6.18836491 L6.14105965,1.54043509 C6.99481404,0.685417544 8.12927018,0.160926316 9.33481404,0.0642245614 C10.0614105,0.00576842105 10.6707439,0.581277193 10.6707439,1.2949614 L10.6707439,7.78506667 C10.6707439,9.3066807 9.43277895,10.5446456 7.91102456,10.5446456" id="Fill-14" fill="#16BAFB" mask="url(#mask-6)"></path>
                            <path d="M9.74386667,2.16133333 C9.71039298,2.16133333 9.67600702,2.16231579 9.64260351,2.16315789 C8.88744561,2.18715789 8.17327018,2.4965614 7.63614737,3.03445614 L2.98716491,7.6834386 C2.48267368,8.18708772 2.17565614,8.85592982 2.12211228,9.56708772 C2.11649825,9.64442105 2.11355088,9.72077193 2.11355088,9.79164912 L2.11355088,29.8857544 C2.11355088,31.1630877 3.1526386,32.2021754 4.42997193,32.2021754 L22.2553053,32.2021754 C23.5326386,32.2021754 24.5717263,31.1630877 24.5717263,29.8857544 L24.5717263,4.47789474 C24.5717263,3.2005614 23.5326386,2.16133333 22.2553053,2.16133333 L9.74386667,2.16133333 L9.74386667,2.16133333 Z M22.2552351,34.3157895 L4.42997193,34.3157895 C1.98737544,34.3157895 7.01754386e-06,32.3285614 7.01754386e-06,29.8858947 L7.01754386e-06,9.7917193 C7.01754386e-06,9.66975439 0.00484912281,9.54168421 0.0143929825,9.41094737 C0.106112281,8.19270175 0.631235088,7.04898246 1.4932,6.18835088 L6.14105965,1.54049123 C7.05916491,0.620982456 8.2809193,0.0917894737 9.58049825,0.0504561404 C9.58316491,0.0504561404 9.58912982,0.050245614 9.59179649,0.0501052632 C9.64211228,0.0489122807 9.6934807,0.0477894737 9.74372632,0.0477894737 L22.2550947,0.0477894737 C24.6977614,0.0477894737 26.6850596,2.03501754 26.6850596,4.47775439 L26.6850596,29.8857544 C26.6850596,32.3285614 24.6979719,34.3157895 22.2552351,34.3157895 L22.2552351,34.3157895 Z" id="Fill-15" fill="#16BAFB" mask="url(#mask-6)"></path>
                            <path d="M6.3405614,33.3025754 C5.75705263,33.3025754 5.28378947,32.8295228 5.28378947,32.2458035 L5.28378947,14.0085404 C5.28378947,13.4248211 5.75698246,12.9516982 6.3405614,12.9516982 C6.92414035,12.9516982 7.39733333,13.4248211 7.39733333,14.0085404 L7.39733333,32.2458035 C7.39733333,32.8295228 6.92407018,33.3025754 6.3405614,33.3025754" id="Fill-16" fill="#16BAFB" mask="url(#mask-6)"></path>
                        </g>
                    </g>
                </g>
            </g>
        </g>
    </g>
</svg>