<svg xmlns="http://www.w3.org/2000/svg" xmlns:xlink="http://www.w3.org/1999/xlink" width="36" height="36" viewBox="0 0 36 36">
    <defs>
        <path id="a" d="M0 .05h23.715v23.716H0z"/>
    </defs>
    <g fill="none" fill-rule="evenodd">
        <path fill="#FFF" d="M21.237 7.219l7.112 7.111a1.528 1.528 0 0 1 0 2.155 1.528 1.528 0 0 1-2.155 0l-7.112-7.111a1.528 1.528 0 0 1 0-2.155 1.528 1.528 0 0 1 2.155 0"/>
        <path fill="#16BAFB" d="M20.16 7.73a.563.563 0 0 0-.566.566c0 .153.058.295.164.402l7.112 7.111a.563.563 0 0 0 .401.165.563.563 0 0 0 .402-.165.575.575 0 0 0 0-.803L20.56 7.895a.564.564 0 0 0-.401-.165m7.111 10.156a2.463 2.463 0 0 1-1.754-.725l-7.111-7.111a2.463 2.463 0 0 1-.725-1.754c0-.664.258-1.286.725-1.753a2.462 2.462 0 0 1 1.753-.725c.664 0 1.287.257 1.754.725l7.112 7.111c.966.967.966 2.54 0 3.507a2.462 2.462 0 0 1-1.754.725"/>
        <path fill="#16BAFB" d="M26.503 23.349a.957.957 0 0 1-.243-1.88 9.939 9.939 0 0 0 4.488-2.585 9.88 9.88 0 0 0 2.913-7.032 9.88 9.88 0 0 0-2.913-7.033C26.87.942 20.56.942 16.683 4.82a9.915 9.915 0 0 0-2.663 4.81.956.956 0 0 1-1.864-.425 11.825 11.825 0 0 1 3.175-5.737c4.623-4.623 12.145-4.623 16.769 0a11.78 11.78 0 0 1 3.473 8.385 11.78 11.78 0 0 1-3.473 8.384 11.853 11.853 0 0 1-5.353 3.081.962.962 0 0 1-.244.032"/>
        <path fill="#FFF" d="M18.41 24.142c0 .838-.686 1.524-1.524 1.524H6.83a1.528 1.528 0 0 1-1.524-1.524c0-.838.686-1.523 1.524-1.523h10.057c.838 0 1.524.685 1.524 1.523m-1.015-9.392a10.833 10.833 0 0 0-5.537-1.51C5.837 13.24.956 18.123.956 24.143c0 6.021 4.881 10.902 10.902 10.902 6.02 0 10.901-4.88 10.901-10.902 0-3.999-2.153-7.495-5.364-9.392"/>
        <g transform="translate(0 12.234)">
            <mask id="b" fill="#fff">
                <use xlink:href="#a"/>
            </mask>
            <path fill="#16BAFB" d="M6.829 11.34a.575.575 0 0 0-.568.568c0 .308.26.568.568.568h10.057c.308 0 .568-.26.568-.568a.575.575 0 0 0-.568-.568H6.83zm10.057 3.048H6.83a2.483 2.483 0 0 1-2.48-2.48 2.483 2.483 0 0 1 2.48-2.48h10.057a2.483 2.483 0 0 1 2.48 2.48 2.483 2.483 0 0 1-2.48 2.48zM11.858 1.963c-5.484 0-9.946 4.461-9.946 9.945s4.462 9.946 9.946 9.946 9.945-4.462 9.945-9.946A9.997 9.997 0 0 0 16.91 3.34a9.883 9.883 0 0 0-5.051-1.376zm0 21.803C5.319 23.766 0 18.446 0 11.908S5.32.051 11.858.051a11.862 11.862 0 0 1 3 .383c1.061.276 2.078.7 3.024 1.259a11.852 11.852 0 0 1 5.833 10.215c0 6.538-5.32 11.858-11.857 11.858z" mask="url(#b)"/>
        </g>
    </g>
</svg>
