<svg xmlns="http://www.w3.org/2000/svg" xmlns:xlink="http://www.w3.org/1999/xlink" width="36" height="29" viewBox="0 0 36 29">
    <defs>
        <path id="a" d="M0 .005h35.93v7.768H0z"/>
        <path id="c" d="M0 .06h35.93v7.525H0z"/>
        <path id="e" d="M0 .06h35.93v2.233H0z"/>
    </defs>
    <g fill="none" fill-rule="evenodd">
        <g transform="translate(0 5.483)">
            <mask id="b" fill="#fff">
                <use xlink:href="#a"/>
            </mask>
            <path fill="#16BAFB" d="M33.994 7.773H9.655a1.116 1.116 0 0 1 0-2.233h24.042V2.238H2.233V5.54h2.026a1.116 1.116 0 0 1 0 2.233H1.936A1.938 1.938 0 0 1 0 5.837V1.941C0 .874.869.005 1.936.005h32.058c1.067 0 1.936.869 1.936 1.936v3.896a1.938 1.938 0 0 1-1.936 1.936" mask="url(#b)"/>
        </g>
        <path fill="#FFF" d="M3.762 1.187h28.406a2.646 2.646 0 0 1 0 5.291H3.762a2.646 2.646 0 0 1 0-5.291"/>
        <g transform="translate(0 .01)">
            <mask id="d" fill="#fff">
                <use xlink:href="#c"/>
            </mask>
            <path fill="#16BAFB" d="M3.762 2.294c-.843 0-1.53.686-1.53 1.529 0 .843.687 1.53 1.53 1.53h28.406c.843 0 1.529-.687 1.529-1.53s-.686-1.53-1.53-1.53H3.763zm28.406 5.291H3.762A3.766 3.766 0 0 1 0 3.823 3.766 3.766 0 0 1 3.762.061h28.406a3.766 3.766 0 0 1 3.762 3.762 3.766 3.766 0 0 1-3.762 3.762z" mask="url(#d)"/>
        </g>
        <path fill="#16BAFB" d="M11.545 22.53c-.616 0-1.116-.5-1.116-1.117v-9.161a1.116 1.116 0 0 1 2.233 0v9.16c0 .617-.5 1.117-1.117 1.117M24.384 22.53c-.616 0-1.116-.5-1.116-1.117v-9.161a1.116 1.116 0 0 1 2.233 0v9.16c0 .617-.5 1.117-1.117 1.117"/>
        <g transform="translate(0 20.57)">
            <mask id="f" fill="#fff">
                <use xlink:href="#e"/>
            </mask>
            <path fill="#16BAFB" d="M34.813 2.293H1.116a1.116 1.116 0 0 1 0-2.232h33.697a1.116 1.116 0 0 1 0 2.232" mask="url(#f)"/>
        </g>
        <path fill="#16BAFB" d="M7.052 22.864a1.844 1.844 0 0 0-1.842 1.842c0 1.016.826 1.842 1.842 1.842a1.844 1.844 0 0 0 1.842-1.842 1.844 1.844 0 0 0-1.842-1.842m0 5.917a4.08 4.08 0 0 1-4.075-4.075 4.08 4.08 0 0 1 4.075-4.075 4.08 4.08 0 0 1 4.075 4.075 4.08 4.08 0 0 1-4.075 4.075M28.878 22.864a1.844 1.844 0 0 0-1.842 1.842c0 1.016.826 1.842 1.842 1.842a1.844 1.844 0 0 0 1.842-1.842 1.844 1.844 0 0 0-1.842-1.842m0 5.917a4.08 4.08 0 0 1-4.075-4.075 4.08 4.08 0 0 1 4.075-4.075 4.08 4.08 0 0 1 4.075 4.075 4.08 4.08 0 0 1-4.075 4.075"/>
    </g>
</svg>
