<?xml version="1.0" standalone="no"?>
<!DOCTYPE svg PUBLIC "-//W3C//DTD SVG 20010904//EN"
 "http://www.w3.org/TR/2001/REC-SVG-20010904/DTD/svg10.dtd">
<svg version="1.0" xmlns="http://www.w3.org/2000/svg"
 width="1024.000000pt" height="1024.000000pt" viewBox="0 0 1024.000000 1024.000000"
 preserveAspectRatio="xMidYMid meet">
<metadata>
Created by potrace 1.11, written by Peter Selinger 2001-2013
</metadata>
<g transform="translate(0.000000,1024.000000) scale(0.100000,-0.100000)"
fill="#000000" stroke="none">
<path d="M5130 9593 c-80 -13 -232 -78 -277 -118 -47 -42 -123 -120 -123 -126
0 -4 -6 -14 -13 -21 -16 -16 -61 -111 -76 -158 -42 -138 -24 -312 46 -439 47
-86 143 -193 183 -206 32 -10 29 42 45 -749 3 -143 7 -262 10 -264 2 -3 0 -12
-5 -22 -5 -10 -6 -20 -3 -24 4 -3 8 -75 9 -159 3 -175 11 -579 20 -977 3 -151
7 -354 8 -450 1 -97 5 -181 10 -188 4 -6 4 -12 -1 -12 -4 0 -8 -13 -8 -30 0
-16 2 -30 5 -30 3 0 6 -84 6 -188 2 -165 13 -777 17 -889 l2 -41 -55 -4 c-84
-5 -494 -1 -590 6 -171 13 -273 26 -395 50 -120 24 -279 70 -355 103 -67 29
-155 76 -158 85 -2 4 -10 8 -18 8 -8 0 -14 5 -14 10 0 6 -6 10 -13 10 -19 0
-130 117 -151 159 -27 51 -45 129 -32 135 8 3 7 5 0 5 -17 1 -2 62 22 90 41
49 40 49 131 44 48 -2 93 -4 98 -4 17 -1 139 12 163 17 12 2 34 6 50 9 15 3
36 7 47 10 11 2 23 4 27 5 5 0 32 9 60 20 29 11 60 20 69 20 9 0 22 7 29 15 7
9 15 13 18 10 6 -5 124 55 133 68 3 5 8 7 10 5 6 -5 161 106 204 146 21 20 41
36 46 36 4 0 9 4 11 9 2 5 24 31 49 58 117 123 207 282 233 413 13 65 14 182
3 230 -8 33 -36 86 -57 109 -24 24 -134 78 -177 85 -13 3 -39 10 -56 15 -18 6
-45 13 -62 15 -16 3 -44 7 -61 10 -144 23 -353 23 -489 1 -16 -3 -41 -7 -55
-9 -53 -8 -165 -39 -174 -47 -6 -5 -16 -9 -23 -9 -14 0 -141 -58 -158 -72 -5
-5 -29 -21 -51 -36 -96 -63 -210 -172 -284 -272 -36 -49 -135 -230 -126 -230
2 0 -3 -21 -11 -47 -8 -27 -16 -86 -18 -133 -4 -114 -15 -213 -25 -225 -9 -11
-37 -115 -48 -178 -8 -49 -8 -260 0 -297 4 -14 9 -38 13 -55 13 -58 77 -213
93 -225 4 -3 25 -31 46 -63 75 -111 226 -235 396 -324 75 -39 269 -116 325
-128 17 -4 41 -11 55 -16 14 -4 36 -11 50 -14 23 -4 69 -14 140 -30 14 -3 39
-7 55 -10 17 -2 41 -7 55 -9 14 -3 48 -8 75 -11 28 -3 66 -8 85 -11 141 -18
323 -27 600 -26 l275 0 2 -157 c1 -86 3 -189 5 -229 2 -39 0 -72 -5 -72 -4 0
-5 -6 0 -12 4 -7 8 -77 9 -155 2 -157 6 -148 -61 -145 -44 2 -263 12 -312 14
-29 1 -53 5 -53 8 0 3 -17 5 -37 5 -34 -1 -184 21 -273 40 -19 4 -44 9 -55 10
-11 2 -20 4 -20 5 0 1 -8 3 -19 5 -80 15 -302 107 -350 145 -97 77 -123 120
-124 211 0 36 -5 84 -11 105 -14 51 -69 116 -118 140 -35 17 -46 20 -97 28
-29 4 -107 -14 -136 -32 -101 -63 -136 -164 -116 -338 12 -104 82 -264 145
-331 12 -12 21 -28 21 -34 0 -7 2 -10 5 -7 3 2 28 -17 55 -43 109 -103 327
-219 495 -264 6 -1 13 -3 17 -4 4 -1 38 -11 75 -22 38 -11 82 -22 98 -25 17
-2 47 -9 68 -15 20 -5 42 -7 47 -4 6 3 10 2 10 -2 0 -5 8 -9 18 -9 9 0 40 -4
67 -8 28 -4 68 -9 90 -12 22 -2 54 -6 70 -9 17 -3 73 -8 125 -11 52 -3 118 -7
145 -9 28 -2 92 -4 143 -4 87 -1 93 -2 101 -23 5 -13 5 -24 0 -26 -5 -2 -7 -8
-3 -13 3 -5 7 -134 10 -287 3 -152 7 -333 10 -402 2 -69 5 -131 4 -137 0 -7 0
-34 0 -60 -1 -27 1 -151 4 -278 15 -653 18 -766 19 -840 l2 -80 165 -3 165 -2
2 67 c1 38 4 219 8 403 4 184 8 366 9 405 l2 69 119 2 c107 1 202 8 275 18
121 17 140 21 165 29 11 3 32 8 47 11 109 19 418 143 418 168 0 4 5 8 11 8 13
0 110 75 170 132 25 24 64 71 87 105 65 96 90 157 118 288 5 26 5 163 -1 195
-2 14 -7 42 -10 62 -10 71 -58 182 -110 254 -35 49 -119 130 -165 160 -25 16
-47 31 -50 34 -12 13 -160 79 -220 99 -71 23 -173 47 -235 56 -22 4 -51 8 -65
11 -14 2 -50 6 -80 10 -30 3 -71 7 -90 10 -40 5 -197 15 -285 18 l-60 2 2 229
c4 437 8 565 18 568 25 8 395 -5 485 -18 19 -2 51 -6 70 -9 53 -7 123 -17 140
-20 8 -1 38 -6 65 -11 28 -4 54 -10 60 -13 5 -3 18 -7 30 -9 48 -7 104 -23
205 -60 160 -58 268 -128 317 -205 19 -31 25 -54 25 -98 1 -105 -64 -193 -188
-255 -69 -34 -74 -39 -74 -83 0 -68 83 -170 185 -228 86 -48 119 -46 223 13
179 101 295 254 329 433 2 13 8 29 14 36 5 6 7 13 4 16 -2 2 -7 40 -9 84 -4
83 -19 171 -34 201 -5 10 -19 41 -32 68 -35 73 -72 125 -133 186 -85 86 -167
142 -297 205 -72 35 -271 109 -320 119 -8 2 -35 8 -60 15 -25 7 -53 14 -63 16
-10 2 -26 5 -35 8 -9 3 -33 8 -52 10 -19 3 -51 8 -70 11 -67 11 -95 15 -135
21 -22 2 -53 7 -70 9 -101 14 -289 25 -467 27 -67 1 -108 6 -109 13 -2 20 -1
83 5 395 12 526 15 672 22 1005 3 176 7 370 9 430 1 61 3 115 5 120 1 6 1 12
0 15 -6 16 -5 82 2 86 4 3 4 13 -2 23 -5 10 -7 21 -4 24 3 3 7 104 9 224 4
204 7 372 20 968 3 132 7 335 9 450 4 211 8 245 30 245 16 0 119 102 154 152
49 72 96 197 101 271 9 143 -17 254 -90 376 -25 42 -80 102 -133 146 -46 37
-156 99 -156 87 0 -4 -4 -1 -9 6 -4 7 -21 14 -37 16 -16 2 -29 5 -29 6 0 10
-206 21 -255 13z m430 -6728 c96 -8 198 -20 236 -28 12 -3 39 -8 60 -11 48 -8
138 -34 181 -52 17 -8 34 -14 39 -14 4 0 31 -18 59 -39 76 -58 103 -116 100
-218 -3 -88 -15 -118 -72 -178 -55 -58 -171 -133 -195 -127 -5 1 -8 -3 -8 -8
0 -6 -8 -10 -18 -10 -10 0 -22 -3 -26 -7 -3 -4 -12 -8 -19 -9 -7 -1 -32 -9
-57 -17 -60 -20 -119 -34 -180 -42 -14 -2 -25 -4 -25 -5 0 -3 -115 -13 -167
-14 -32 0 -58 -5 -58 -9 0 -4 -8 -4 -17 2 -10 5 -26 5 -40 0 -15 -5 -23 -5
-23 2 0 6 -9 8 -19 4 -35 -11 -34 -26 -26 290 3 127 7 292 8 367 l2 137 95 -4
c52 -3 129 -7 170 -10z"/>
<path d="M3050 9098 c-100 -20 -106 -22 -130 -31 -8 -3 -40 -13 -70 -23 -30
-9 -64 -22 -75 -27 -11 -6 -22 -12 -25 -12 -12 -3 -61 -26 -135 -62 -122 -61
-143 -72 -237 -130 -47 -29 -91 -53 -96 -53 -6 0 -12 -4 -14 -8 -1 -4 -55 -41
-118 -82 -63 -41 -117 -77 -120 -80 -3 -3 -43 -30 -90 -60 -47 -30 -89 -58
-95 -63 -37 -28 -127 -87 -135 -87 -4 0 -10 -4 -12 -9 -5 -12 -206 -138 -428
-267 -138 -80 -431 -205 -537 -229 -10 -2 -39 -11 -66 -19 -26 -8 -49 -15 -52
-16 -3 0 -6 0 -7 -1 -2 0 -14 -2 -28 -5 -14 -2 -38 -7 -55 -9 -36 -7 -80 -13
-155 -21 -63 -6 -59 -6 -125 -5 -27 0 -57 1 -65 1 -16 -1 -95 7 -147 13 -30 4
-31 3 -20 -22 35 -82 169 -241 205 -241 6 0 12 -5 12 -12 0 -6 3 -8 7 -5 3 4
13 1 22 -6 25 -20 114 -46 177 -52 11 -1 24 -4 30 -7 10 -6 231 -2 284 6 70
10 115 17 136 21 18 4 59 11 111 19 7 1 16 5 19 9 4 4 18 7 32 7 22 0 20 -5
-29 -56 -246 -255 -292 -304 -288 -308 11 -9 120 -40 201 -57 75 -15 120 -18
233 -14 169 6 185 8 185 18 0 4 6 7 12 5 36 -7 314 105 353 143 16 16 26 10
41 -27 29 -69 14 -156 -53 -294 -41 -87 -73 -172 -67 -181 17 -28 274 -46 374
-26 138 26 236 51 293 72 20 8 41 14 45 13 4 -1 18 3 32 9 14 7 126 44 250 83
124 40 232 75 240 78 8 3 24 6 35 7 11 1 45 9 75 18 30 9 66 18 80 21 14 3 34
7 45 9 11 3 40 8 65 11 25 3 56 8 70 11 14 3 55 7 92 9 37 2 71 6 75 8 20 10
284 -3 353 -17 14 -3 41 -8 60 -11 86 -15 295 -78 317 -96 7 -6 14 -5 19 3 8
13 8 134 0 147 -2 4 -1 14 4 22 5 8 5 21 -1 31 -5 11 -5 20 0 24 6 3 6 17 1
35 -5 17 -5 30 0 30 5 0 5 13 0 30 -5 17 -5 30 0 30 5 0 5 13 0 29 -4 16 -6
32 -3 35 8 8 9 186 1 186 -4 0 -3 14 2 30 5 17 5 30 1 30 -4 0 -4 27 -1 60 3
33 3 60 -1 60 -4 0 -4 14 1 30 5 17 6 30 2 30 -8 0 -7 68 1 76 3 3 2 17 -3 30
-6 14 -6 24 0 24 5 0 5 12 0 30 -5 17 -5 30 0 30 5 0 5 13 0 30 -5 17 -5 30 0
30 5 0 5 13 0 30 -5 17 -5 30 0 30 5 0 5 12 1 28 -5 15 -5 37 0 49 5 13 4 25
-1 28 -7 4 -7 13 0 24 5 10 6 21 3 25 -4 4 -6 26 -4 49 6 90 6 117 0 117 -4 0
-3 15 1 34 4 18 3 40 -1 49 -6 9 -5 18 0 21 6 4 6 18 1 36 -5 17 -5 30 0 30 4
0 4 17 0 38 -7 28 -27 54 -83 107 -40 39 -87 80 -103 92 -34 26 -55 42 -109
84 -43 33 -276 152 -283 144 -3 -2 -16 2 -31 9 -14 7 -42 16 -61 19 -19 3 -46
9 -60 13 -61 16 -285 11 -380 -8z"/>
<path d="M6850 9113 c-20 -4 -105 -24 -195 -47 -63 -16 -246 -117 -327 -180
-14 -12 -41 -32 -59 -46 -18 -14 -70 -61 -116 -105 -81 -78 -83 -81 -74 -113
5 -17 6 -32 1 -32 -5 0 -5 -13 0 -30 5 -17 5 -30 0 -30 -5 0 -5 -12 -1 -28 5
-15 5 -37 0 -49 -5 -13 -4 -25 1 -28 7 -4 7 -13 0 -24 -5 -10 -6 -21 -3 -25 4
-4 6 -26 4 -49 -6 -90 -6 -117 0 -117 4 0 3 -15 -1 -34 -4 -18 -3 -40 1 -49 6
-9 5 -18 0 -21 -6 -4 -6 -18 -1 -36 5 -17 6 -30 2 -30 -8 0 -7 -89 1 -97 3 -3
2 -16 -3 -29 -6 -14 -6 -26 0 -29 6 -4 7 -13 1 -24 -6 -10 -6 -23 -1 -31 5 -8
5 -21 0 -30 -5 -9 -5 -22 0 -30 5 -8 5 -21 0 -30 -5 -9 -5 -22 0 -30 4 -7 4
-24 0 -36 -6 -14 -5 -26 0 -29 6 -4 7 -13 1 -24 -6 -10 -6 -23 -1 -31 5 -8 5
-21 0 -30 -5 -9 -5 -22 0 -30 5 -8 5 -21 0 -30 -5 -9 -5 -22 0 -30 5 -8 5 -21
0 -31 -5 -9 -6 -19 -3 -23 4 -4 6 -26 4 -49 -6 -90 -6 -117 0 -117 4 0 3 -15
-1 -34 -4 -18 -3 -40 1 -49 6 -9 5 -18 0 -21 -6 -4 -6 -18 -1 -36 5 -17 6 -30
2 -30 -8 0 -7 -88 1 -96 3 -3 4 -11 1 -18 -2 -6 59 9 137 35 78 26 149 46 158
44 9 -1 21 0 26 4 6 3 15 6 20 7 6 1 28 5 50 8 137 23 404 24 520 2 11 -2 40
-7 65 -10 25 -3 56 -9 70 -12 14 -3 37 -7 51 -10 14 -3 75 -18 135 -35 142
-39 125 -34 194 -58 19 -7 44 -14 55 -16 23 -5 230 -73 260 -86 20 -8 174 -55
210 -64 11 -3 49 -12 85 -20 36 -8 76 -17 90 -21 14 -3 79 -7 145 -9 90 -3
136 1 185 13 60 16 65 19 61 42 -1 14 -17 54 -34 90 -16 36 -31 67 -31 70 -1
3 -5 10 -9 17 -4 6 -18 41 -32 76 -26 71 -29 170 -5 220 12 24 15 25 29 13 31
-28 198 -104 281 -129 126 -38 221 -50 351 -44 62 3 114 6 114 7 0 2 9 4 20 5
19 3 68 13 90 19 87 23 135 40 133 47 -3 7 -268 287 -318 336 l-25 24 30 -5
c17 -3 41 -8 55 -11 14 -3 34 -8 45 -9 11 -2 52 -9 90 -16 109 -18 163 -23
265 -24 160 0 253 19 359 74 55 29 150 124 176 175 11 22 23 42 27 45 3 3 10
18 14 34 6 25 4 27 -12 23 -17 -6 -156 -20 -179 -19 -5 0 -62 4 -125 7 -63 4
-125 7 -137 7 -13 0 -23 3 -23 7 0 3 -10 6 -22 7 -50 1 -233 46 -303 74 -11 4
-42 16 -70 25 -110 39 -400 179 -435 210 -8 8 -19 15 -25 16 -10 2 -30 13 -97
56 -21 12 -42 23 -48 23 -5 0 -10 5 -10 10 0 6 -6 10 -13 10 -7 0 -23 9 -35
20 -12 11 -24 20 -28 20 -10 0 -148 93 -152 102 -2 4 -8 8 -14 8 -8 0 -93 55
-108 70 -11 12 -90 60 -98 60 -4 0 -14 9 -22 20 -8 11 -18 20 -22 20 -4 0 -78
47 -165 104 -229 150 -502 304 -525 298 -5 -1 -8 2 -8 8 0 6 -7 10 -15 10 -8
0 -23 4 -33 9 -73 37 -206 79 -337 106 -36 8 -280 14 -315 8z"/>
<path d="M6507 6564 c-4 -4 -30 -8 -59 -9 -132 -5 -314 -47 -398 -91 -41 -22
-111 -84 -94 -84 4 0 1 -6 -5 -14 -14 -16 -20 -43 -27 -109 -2 -26 -5 -51 -5
-55 -1 -4 0 -9 1 -12 1 -3 4 -27 5 -55 8 -106 58 -232 143 -358 47 -71 188
-221 250 -267 19 -14 39 -30 45 -35 75 -66 265 -156 402 -191 87 -22 134 -27
279 -28 148 -1 149 -1 168 -27 27 -36 26 -137 -2 -213 -38 -100 -112 -178
-245 -255 -87 -51 -123 -84 -145 -133 -18 -41 -19 -84 -2 -128 11 -29 85 -110
100 -110 6 0 12 -3 14 -7 8 -18 98 -55 145 -59 40 -3 57 1 84 19 19 12 45 28
59 35 32 16 128 88 172 128 163 149 268 356 283 562 3 40 6 76 6 80 1 4 1 9
-1 12 -1 3 -3 34 -5 70 -2 36 -6 76 -9 90 -19 87 -30 128 -43 152 -7 15 -13
30 -13 33 0 3 0 6 -1 8 -6 20 -10 48 -9 72 3 171 0 199 -30 294 -19 56 -69
164 -92 196 -137 187 -262 301 -425 383 -44 22 -83 38 -86 36 -3 -3 -13 -1
-24 5 -17 10 -110 33 -183 47 -19 3 -65 7 -102 8 -37 1 -70 5 -74 8 -3 4 -16
3 -29 -2 -13 -5 -26 -5 -32 1 -5 5 -12 6 -16 3z"/>
<path d="M3867 2549 c-102 -37 -174 -121 -182 -214 -2 -16 -4 -32 -5 -35 -1
-3 -1 -9 0 -15 1 -5 4 -23 7 -40 7 -46 43 -112 77 -143 76 -68 244 -183 405
-276 65 -38 347 -177 365 -180 6 -2 28 -10 49 -19 21 -9 52 -19 71 -22 29 -6
36 -2 60 26 31 37 41 60 62 139 12 49 27 148 26 175 -6 120 -29 191 -70 206
-42 16 -94 39 -124 55 -16 9 -28 13 -28 10 0 -8 -175 81 -238 121 -29 18 -56
33 -61 33 -4 0 -16 9 -26 20 -10 11 -24 20 -31 20 -7 0 -14 3 -16 8 -5 12
-120 98 -156 116 -18 9 -54 18 -80 19 -26 1 -49 5 -52 8 -3 3 -27 -2 -53 -12z"/>
</g>
</svg>
