<?xml version="1.0" standalone="no"?>
<!DOCTYPE svg PUBLIC "-//W3C//DTD SVG 20010904//EN"
 "http://www.w3.org/TR/2001/REC-SVG-20010904/DTD/svg10.dtd">
<svg version="1.0" xmlns="http://www.w3.org/2000/svg"
 width="700.000000pt" height="700.000000pt" viewBox="0 0 700.000000 700.000000"
 preserveAspectRatio="xMidYMid meet">
<metadata>
Created by potrace 1.11, written by Peter Selinger 2001-2013
</metadata>
<g transform="translate(0.000000,700.000000) scale(0.100000,-0.100000)"
fill="#000000" stroke="none">
<path d="M3430 5786 c-90 -24 -164 -88 -203 -175 -32 -71 -30 -180 6 -253 15
-31 46 -73 69 -93 l41 -37 18 -877 c10 -482 18 -945 19 -1030 l0 -154 -207 6
c-225 6 -335 23 -461 71 -125 48 -212 137 -212 216 1 59 17 70 102 70 194 0
390 99 510 257 61 82 88 155 88 243 0 59 -4 73 -25 98 -38 45 -128 73 -260 79
-214 11 -344 -34 -470 -160 -97 -98 -134 -172 -145 -298 -5 -52 -16 -119 -24
-149 -21 -75 -20 -175 3 -249 85 -274 406 -420 929 -424 l182 -2 0 -121 c0
-66 3 -156 7 -199 l6 -78 -109 7 c-266 17 -430 63 -511 143 -28 29 -33 41 -33
81 0 81 -56 142 -131 142 -23 0 -42 -10 -71 -40 l-41 -40 5 -83 c5 -99 29
-155 97 -227 118 -126 348 -202 658 -217 l131 -6 6 -161 c4 -89 10 -336 14
-551 l7 -390 81 -3 81 -3 6 143 c4 79 7 188 7 244 l0 101 113 6 c385 19 630
227 586 498 -35 217 -194 319 -545 351 l-134 12 0 142 c0 77 3 169 7 204 l6
63 126 -6 c342 -17 561 -107 561 -231 0 -52 -23 -85 -86 -122 -24 -14 -44 -32
-44 -40 0 -44 76 -128 127 -140 19 -5 40 0 70 16 97 51 167 152 180 257 7 64
-19 163 -59 226 -102 160 -370 259 -737 274 l-143 6 6 176 c3 97 13 556 22
1021 l16 845 44 44 c60 60 88 121 92 203 9 149 -75 270 -217 312 -64 19 -99
19 -161 2z m355 -3466 c157 -23 231 -60 253 -125 45 -135 -102 -240 -363 -261
l-85 -7 0 195 c0 107 3 198 7 201 9 10 107 8 188 -3z"/>
<path d="M2465 5496 c-150 -35 -269 -95 -574 -288 -453 -289 -632 -361 -893
-362 -65 -1 -118 -4 -118 -7 0 -9 55 -82 76 -101 35 -31 110 -57 180 -64 61
-5 113 -1 259 22 l40 6 -89 -90 -89 -90 54 -16 c132 -40 274 -27 410 35 38 18
73 29 77 25 17 -17 4 -96 -26 -161 -18 -37 -32 -73 -32 -80 0 -18 33 -25 120
-25 85 0 156 16 390 88 210 64 300 83 430 89 113 6 229 -10 334 -47 l56 -19 0
434 0 434 -60 53 c-76 67 -164 121 -243 148 -80 27 -220 35 -302 16z"/>
<path d="M4305 5500 c-111 -24 -224 -85 -322 -174 l-53 -48 0 -433 0 -433 76
24 c221 70 415 56 785 -60 199 -62 262 -76 349 -76 87 0 120 7 120 25 0 7 -14
43 -32 80 -30 65 -43 144 -26 161 4 4 38 -7 75 -23 38 -17 86 -37 108 -44 60
-20 228 -17 299 4 l59 18 -89 91 -89 90 40 -6 c146 -23 198 -27 259 -22 70 7
145 33 180 64 21 19 76 92 76 101 0 3 -53 6 -117 7 -262 1 -441 73 -896 362
-357 228 -498 290 -671 297 -50 2 -109 0 -131 -5z"/>
<path d="M4052 4225 c-139 -31 -176 -69 -176 -175 1 -60 7 -81 39 -148 53
-108 161 -214 276 -271 94 -47 221 -75 294 -64 57 7 75 -7 75 -60 0 -65 -34
-122 -98 -165 -135 -91 -153 -135 -82 -203 22 -21 56 -43 77 -48 32 -9 43 -7
87 17 114 61 211 181 241 297 19 74 19 132 -1 215 -8 36 -19 107 -23 157 -10
116 -47 197 -132 288 -114 122 -215 165 -399 171 -77 3 -136 -1 -178 -11z"/>
<path d="M2838 2144 c-55 -29 -76 -122 -40 -175 35 -53 173 -148 316 -218 114
-56 136 -57 159 -10 22 45 33 155 18 191 -7 20 -31 36 -94 66 -46 22 -112 59
-147 83 -106 75 -114 79 -150 79 -19 -1 -47 -7 -62 -16z"/>
</g>
</svg>
