<?xml version="1.0" encoding="UTF-8"?>
<svg width="85px" height="13px" viewBox="0 0 85 13" version="1.1" xmlns="http://www.w3.org/2000/svg" xmlns:xlink="http://www.w3.org/1999/xlink">
    <!-- Generator: Sketch 58 (84663) - https://sketch.com -->
    <title></title>
    <desc>Created with Sketch.</desc>
    <g id="Desktop" stroke="none" stroke-width="1" fill="none" fill-rule="evenodd">
        <g id="Home" transform="translate(-758.000000, -3675.000000)" fill="#FFC200" fill-rule="nonzero">
            <g id="testimonials" transform="translate(225.000000, 3420.000000)">
                <path d="M546.000015,260.054679 C546.000015,259.820304 545.750015,259.726554 545.562515,259.695304 L541.640635,259.124991 L539.882821,255.570299 C539.812508,255.421861 539.679695,255.249986 539.5,255.249986 C539.32032,255.249986 539.187507,255.421861 539.117195,255.570299 L537.35938,259.124991 L533.437501,259.695304 C533.242188,259.726554 533,259.820304 533,260.054679 C533,260.195304 533.101563,260.328117 533.195313,260.42968 L536.039066,263.195308 L535.36719,267.101563 C535.359378,267.15625 535.351565,267.203125 535.351565,267.257813 C535.351565,267.460938 535.453128,267.648438 535.679691,267.648438 C535.789066,267.648438 535.890628,267.609376 535.992191,267.554688 L539.5,265.710936 L543.007824,267.554688 C543.101575,267.609376 543.21095,267.648438 543.320325,267.648438 C543.546888,267.648438 543.640638,267.460938 543.640638,267.257813 C543.640638,267.203125 543.640638,267.15625 543.632825,267.101563 L542.960949,263.195308 L545.79689,260.42968 C545.898453,260.328117 546.000015,260.195304 546.000015,260.054679 Z M564.000015,260.054679 C564.000015,259.820304 563.750015,259.726554 563.562515,259.695304 L559.640635,259.124991 L557.882821,255.570299 C557.812508,255.421861 557.679695,255.249986 557.5,255.249986 C557.32032,255.249986 557.187507,255.421861 557.117195,255.570299 L555.35938,259.124991 L551.437501,259.695304 C551.242188,259.726554 551,259.820304 551,260.054679 C551,260.195304 551.101563,260.328117 551.195313,260.42968 L554.039066,263.195308 L553.36719,267.101563 C553.359378,267.15625 553.351565,267.203125 553.351565,267.257813 C553.351565,267.460938 553.453128,267.648438 553.679691,267.648438 C553.789066,267.648438 553.890628,267.609376 553.992191,267.554688 L557.5,265.710936 L561.007824,267.554688 C561.101575,267.609376 561.21095,267.648438 561.320325,267.648438 C561.546888,267.648438 561.640638,267.460938 561.640638,267.257813 C561.640638,267.203125 561.640638,267.15625 561.632825,267.101563 L560.960949,263.195308 L563.79689,260.42968 C563.898453,260.328117 564.000015,260.195304 564.000015,260.054679 Z M582.000015,260.054679 C582.000015,259.820304 581.750015,259.726554 581.562515,259.695304 L577.640635,259.124991 L575.882821,255.570299 C575.812508,255.421861 575.679695,255.249986 575.5,255.249986 C575.32032,255.249986 575.187507,255.421861 575.117195,255.570299 L573.35938,259.124991 L569.437501,259.695304 C569.242188,259.726554 569,259.820304 569,260.054679 C569,260.195304 569.101563,260.328117 569.195313,260.42968 L572.039066,263.195308 L571.36719,267.101563 C571.359378,267.15625 571.351565,267.203125 571.351565,267.257813 C571.351565,267.460938 571.453128,267.648438 571.679691,267.648438 C571.789066,267.648438 571.890628,267.609376 571.992191,267.554688 L575.5,265.710936 L579.007824,267.554688 C579.101575,267.609376 579.21095,267.648438 579.320325,267.648438 C579.546888,267.648438 579.640638,267.460938 579.640638,267.257813 C579.640638,267.203125 579.640638,267.15625 579.632825,267.101563 L578.960949,263.195308 L581.79689,260.42968 C581.898453,260.328117 582.000015,260.195304 582.000015,260.054679 Z M600.000015,260.054679 C600.000015,259.820304 599.750015,259.726554 599.562515,259.695304 L595.640635,259.124991 L593.882821,255.570299 C593.812508,255.421861 593.679695,255.249986 593.5,255.249986 C593.32032,255.249986 593.187507,255.421861 593.117195,255.570299 L591.35938,259.124991 L587.437501,259.695304 C587.242188,259.726554 587,259.820304 587,260.054679 C587,260.195304 587.101563,260.328117 587.195313,260.42968 L590.039066,263.195308 L589.36719,267.101563 C589.359378,267.15625 589.351565,267.203125 589.351565,267.257813 C589.351565,267.460938 589.453128,267.648438 589.679691,267.648438 C589.789066,267.648438 589.890628,267.609376 589.992191,267.554688 L593.5,265.710936 L597.007824,267.554688 C597.101575,267.609376 597.21095,267.648438 597.320325,267.648438 C597.546888,267.648438 597.640638,267.460938 597.640638,267.257813 C597.640638,267.203125 597.640638,267.15625 597.632825,267.101563 L596.960949,263.195308 L599.79689,260.42968 C599.898453,260.328117 600.000015,260.195304 600.000015,260.054679 Z M618.000015,260.054679 C618.000015,260.195304 617.898453,260.328117 617.79689,260.42968 L614.960949,263.195308 L615.632825,267.101563 C615.640638,267.15625 615.640638,267.203125 615.640638,267.257813 C615.640638,267.460938 615.546888,267.648438 615.320325,267.648438 C615.238293,267.648438 615.156262,267.626466 615.080823,267.592408 L611.5,265.710936 L607.992191,267.554688 C607.890628,267.609376 607.789066,267.648438 607.679691,267.648438 C607.453128,267.648438 607.351565,267.460938 607.351565,267.257813 C607.351565,267.203125 607.359378,267.15625 607.36719,267.101563 L608.039066,263.195308 L605.195313,260.42968 C605.101563,260.328117 605,260.195304 605,260.054679 C605,259.820304 605.242188,259.726554 605.437501,259.695304 L609.35938,259.124991 L611.117195,255.570299 C611.187507,255.421861 611.32032,255.249986 611.5,255.249986 C611.679695,255.249986 611.812508,255.421861 611.882821,255.570299 L613.640635,259.124991 L617.562515,259.695304 C617.750015,259.726554 618.000015,259.820304 618.000015,260.054679 Z" id=""></path>
            </g>
        </g>
    </g>
</svg>