<svg xmlns="http://www.w3.org/2000/svg" xmlns:xlink="http://www.w3.org/1999/xlink" width="28" height="36" viewBox="0 0 28 36">
    <defs>
        <path id="a" d="M.06.04h7.548v5.796H.06z"/>
        <path id="c" d="M0 0h27.22v32.081H0z"/>
    </defs>
    <g fill="none" fill-rule="evenodd">
        <path fill="#FFF" d="M13.61 6.585a2.7 2.7 0 0 0-2.7 2.7v2.12H8.792a2.7 2.7 0 1 0 0 5.398h2.12v2.12a2.7 2.7 0 1 0 5.399 0v-2.12h2.12a2.7 2.7 0 1 0 0-5.399h-2.12v-2.12a2.7 2.7 0 0 0-2.7-2.699"/>
        <path fill="#16BAFB" d="M8.791 12.377a1.73 1.73 0 0 0-1.727 1.727A1.73 1.73 0 0 0 8.79 15.83h2.12c.537 0 .972.435.972.972v2.12a1.73 1.73 0 0 0 1.727 1.727 1.73 1.73 0 0 0 1.727-1.727v-2.12c0-.537.436-.972.973-.972h2.12a1.73 1.73 0 0 0 1.726-1.727 1.73 1.73 0 0 0-1.727-1.727h-2.12a.972.972 0 0 1-.972-.973v-2.12a1.73 1.73 0 0 0-1.727-1.727 1.73 1.73 0 0 0-1.727 1.728v2.12a.972.972 0 0 1-.972.972H8.79zm4.82 10.217a3.676 3.676 0 0 1-3.672-3.671v-1.148H8.79a3.676 3.676 0 0 1-3.672-3.671 3.676 3.676 0 0 1 3.672-3.672H9.94V9.285a3.676 3.676 0 0 1 3.671-3.672 3.676 3.676 0 0 1 3.672 3.672v1.147h1.147a3.676 3.676 0 0 1 3.672 3.672 3.676 3.676 0 0 1-3.672 3.671h-1.147v1.148a3.676 3.676 0 0 1-3.672 3.671z"/>
        <path fill="#FFF" d="M16.642 31.176h5.603v3.582c0 .192-.234.323-.446.249l-2.232-.775a.381.381 0 0 0-.247 0l-2.232.775c-.213.074-.446-.057-.446-.249v-3.582z"/>
        <g transform="translate(15.61 30.164)">
            <mask id="b" fill="#fff">
                <use xlink:href="#a"/>
            </mask>
            <path fill="#16BAFB" d="M3.834 3.076c.151 0 .3.025.442.074l1.387.481V1.984H2.004v1.647l1.387-.481c.143-.05.291-.074.443-.074m2.48 2.76c-.152 0-.3-.025-.443-.075l-2.037-.707-2.037.707c-.143.05-.292.075-.443.075C.641 5.836.06 5.279.06 4.594V1.012C.06.475.495.04 1.032.04h5.603c.537 0 .973.435.973.972v3.582c0 .685-.581 1.242-1.295 1.242" mask="url(#b)"/>
        </g>
        <g>
            <mask id="d" fill="#fff">
                <use xlink:href="#c"/>
            </mask>
            <path fill="#16BAFB" d="M24.11 32.081H4.374A4.38 4.38 0 0 1 0 27.706V4.375A4.38 4.38 0 0 1 4.375 0h19.734a3.114 3.114 0 0 1 3.111 3.11v17.71a.972.972 0 0 1-1.944 0V3.11c0-.642-.523-1.166-1.166-1.166H4.375c-1.34 0-2.43 1.09-2.43 2.43v23.332c0 1.34 1.09 2.43 2.43 2.43h19.734c.644 0 1.167-.522 1.167-1.166v-3.192a.972.972 0 1 1 1.944 0v3.192a3.114 3.114 0 0 1-3.11 3.111" mask="url(#d)"/>
        </g>
        <path fill="#16BAFB" d="M18.694 25.967H8.526a.972.972 0 1 1 0-1.944h10.168a.972.972 0 1 1 0 1.944"/>
    </g>
</svg>
